<svg width="116" height="22" viewBox="0 0 116 22" fill="none" xmlns="http://www.w3.org/2000/svg">
<path d="M19.0677 4.09879L16.4828 1.38279C16.3004 1.19018 16.0837 1.03736 15.845 0.933099C15.6063 0.82884 15.3504 0.775203 15.092 0.775269C14.5653 0.775269 14.0702 0.992242 13.6988 1.38279L10.9173 4.30811C10.7342 4.49987 10.5889 4.72781 10.4897 4.97882C10.3906 5.22983 10.3396 5.49896 10.3397 5.77076C10.3397 6.32468 10.546 6.84542 10.9173 7.23597L12.9513 9.37507C12.4752 10.4787 11.8132 11.4827 10.9974 12.3387C10.1836 13.1988 9.22906 13.8974 8.17949 14.4012L6.14554 12.2621C5.9632 12.0695 5.74647 11.9167 5.5078 11.8124C5.26913 11.7081 5.01322 11.6545 4.75478 11.6546C4.22809 11.6546 3.73295 11.8715 3.3616 12.2621L0.577663 15.1849C0.394294 15.377 0.248856 15.6053 0.149719 15.8568C0.0505807 16.1083 -0.00030077 16.3778 1.33745e-06 16.6501C1.33745e-06 17.204 0.206309 17.7247 0.577663 18.1153L3.15772 20.8287C3.74995 21.4541 4.56789 21.8089 5.40769 21.8089C5.58487 21.8089 5.75477 21.7936 5.92224 21.763C9.19404 21.1963 12.4391 19.3661 15.058 16.6143C17.6745 13.8651 19.4123 10.4548 19.9584 7.00368C20.1235 5.94945 19.791 4.86458 19.0677 4.09879Z" fill="white"/>
<path d="M26.34 7.204H27.252V8.944H28.992V9.772H27.252V11.512H26.34V9.772H24.6V8.944H26.34V7.204ZM30.3218 13L29.9978 12.04C30.6138 11.48 31.1898 10.992 31.7258 10.576C32.2618 10.16 32.7138 9.772 33.0818 9.412C33.3618 9.148 33.5778 8.892 33.7298 8.644C33.8898 8.388 33.9738 8.124 33.9818 7.852C33.9898 7.428 33.8538 7.112 33.5738 6.904C33.2938 6.688 32.9578 6.58 32.5658 6.58C32.2858 6.58 31.9938 6.636 31.6898 6.748C31.3938 6.86 31.1258 7.032 30.8858 7.264L30.2858 6.7C30.6138 6.348 30.9858 6.092 31.4018 5.932C31.8178 5.772 32.2298 5.692 32.6378 5.692C33.0538 5.692 33.4418 5.772 33.8018 5.932C34.1618 6.092 34.4498 6.324 34.6658 6.628C34.8898 6.924 35.0018 7.292 35.0018 7.732C35.0018 8.108 34.8818 8.476 34.6418 8.836C34.4018 9.196 34.0938 9.556 33.7178 9.916C33.3338 10.284 32.9058 10.656 32.4338 11.032C31.9618 11.4 31.5018 11.78 31.0538 12.172H34.3418L34.9658 11.176L35.6498 11.536L34.7978 13H30.3218ZM37.8388 8.68C38.0548 8.536 38.2788 8.432 38.5108 8.368C38.7428 8.296 38.9748 8.26 39.2068 8.26C39.6468 8.26 40.0388 8.348 40.3828 8.524C40.7348 8.692 41.0108 8.948 41.2108 9.292C41.4188 9.636 41.5228 10.06 41.5228 10.564C41.5228 11.412 41.2948 12.06 40.8388 12.508C40.3828 12.956 39.7268 13.18 38.8708 13.18C38.4068 13.18 37.9588 13.092 37.5268 12.916C37.0948 12.74 36.7428 12.48 36.4708 12.136L37.2028 11.644C37.3948 11.876 37.6348 12.056 37.9228 12.184C38.2188 12.304 38.5468 12.364 38.9068 12.364C39.4268 12.364 39.8228 12.216 40.0948 11.92C40.3668 11.624 40.5028 11.216 40.5028 10.696C40.5028 10.344 40.4268 10.048 40.2748 9.808C40.1308 9.568 39.9348 9.388 39.6868 9.268C39.4468 9.148 39.1868 9.088 38.9068 9.088C38.6508 9.088 38.3908 9.144 38.1268 9.256C37.8628 9.36 37.6268 9.516 37.4188 9.724L36.8668 9.472V5.932H41.0188V6.772H37.8388V8.68ZM45.3882 5.752C45.8122 5.752 46.1962 5.816 46.5402 5.944C46.8842 6.072 47.1802 6.28 47.4282 6.568C47.6842 6.856 47.8802 7.24 48.0162 7.72C48.1522 8.192 48.2202 8.776 48.2202 9.472C48.2202 10.16 48.1522 10.744 48.0162 11.224C47.8802 11.696 47.6842 12.076 47.4282 12.364C47.1802 12.652 46.8842 12.86 46.5402 12.988C46.1962 13.116 45.8122 13.18 45.3882 13.18C44.9722 13.18 44.5922 13.116 44.2482 12.988C43.9042 12.86 43.6042 12.652 43.3482 12.364C43.1002 12.076 42.9082 11.696 42.7722 11.224C42.6362 10.744 42.5682 10.16 42.5682 9.472C42.5682 8.776 42.6362 8.192 42.7722 7.72C42.9082 7.24 43.1002 6.856 43.3482 6.568C43.6042 6.28 43.9042 6.072 44.2482 5.944C44.5922 5.816 44.9722 5.752 45.3882 5.752ZM45.4002 6.568C45.1522 6.568 44.9162 6.612 44.6922 6.7C44.4762 6.78 44.2882 6.924 44.1282 7.132C43.9682 7.34 43.8402 7.636 43.7442 8.02C43.6562 8.396 43.6122 8.88 43.6122 9.472C43.6122 10.056 43.6562 10.54 43.7442 10.924C43.8402 11.3 43.9682 11.592 44.1282 11.8C44.2882 12.008 44.4762 12.156 44.6922 12.244C44.9162 12.324 45.1522 12.364 45.4002 12.364C45.6482 12.364 45.8802 12.324 46.0962 12.244C46.3122 12.156 46.5002 12.008 46.6602 11.8C46.8282 11.592 46.9562 11.3 47.0442 10.924C47.1402 10.54 47.1882 10.056 47.1882 9.472C47.1882 8.88 47.1402 8.396 47.0442 8.02C46.9562 7.636 46.8282 7.34 46.6602 7.132C46.5002 6.924 46.3122 6.78 46.0962 6.7C45.8802 6.612 45.6482 6.568 45.4002 6.568ZM57.8767 6.448C57.2607 7.2 56.7727 7.976 56.4127 8.776C56.0527 9.568 55.7887 10.328 55.6207 11.056C55.4527 11.784 55.3487 12.432 55.3087 13H54.3247C54.3967 12.4 54.5167 11.764 54.6847 11.092C54.8607 10.412 55.1047 9.708 55.4167 8.98C55.7287 8.252 56.1167 7.512 56.5807 6.76H53.3647L53.1967 7.504L52.3687 7.324L52.6327 5.932H57.8767V6.448ZM60.8714 5.752C61.3114 5.752 61.7074 5.832 62.0594 5.992C62.4194 6.144 62.7074 6.372 62.9234 6.676C63.1394 6.972 63.2474 7.34 63.2474 7.78C63.2474 8.004 63.1994 8.224 63.1034 8.44C63.0154 8.656 62.8794 8.844 62.6954 9.004C62.5194 9.164 62.3034 9.28 62.0474 9.352C62.3034 9.392 62.5314 9.492 62.7314 9.652C62.9314 9.812 63.0874 10.016 63.1994 10.264C63.3194 10.504 63.3794 10.764 63.3794 11.044C63.3794 11.516 63.2594 11.912 63.0194 12.232C62.7874 12.552 62.4834 12.792 62.1074 12.952C61.7314 13.104 61.3234 13.18 60.8834 13.18C60.4514 13.18 60.0434 13.104 59.6594 12.952C59.2834 12.792 58.9754 12.552 58.7354 12.232C58.5034 11.912 58.3874 11.516 58.3874 11.044C58.3874 10.764 58.4434 10.504 58.5554 10.264C58.6754 10.016 58.8354 9.812 59.0354 9.652C59.2354 9.492 59.4634 9.392 59.7194 9.352C59.4634 9.28 59.2434 9.164 59.0594 9.004C58.8834 8.844 58.7474 8.656 58.6514 8.44C58.5634 8.224 58.5194 8.004 58.5194 7.78C58.5194 7.34 58.6234 6.972 58.8314 6.676C59.0474 6.372 59.3354 6.144 59.6954 5.992C60.0554 5.832 60.4474 5.752 60.8714 5.752ZM60.8834 9.76C60.3954 9.76 60.0274 9.884 59.7794 10.132C59.5394 10.38 59.4194 10.684 59.4194 11.044C59.4194 11.428 59.5554 11.744 59.8274 11.992C60.0994 12.24 60.4514 12.364 60.8834 12.364C61.3154 12.364 61.6674 12.24 61.9394 11.992C62.2114 11.744 62.3474 11.428 62.3474 11.044C62.3474 10.684 62.2274 10.38 61.9874 10.132C61.7474 9.884 61.3794 9.76 60.8834 9.76ZM60.8834 6.568C60.4594 6.568 60.1274 6.684 59.8874 6.916C59.6554 7.148 59.5394 7.436 59.5394 7.78C59.5394 8.124 59.6554 8.412 59.8874 8.644C60.1274 8.876 60.4594 8.992 60.8834 8.992C61.3074 8.992 61.6354 8.876 61.8674 8.644C62.1074 8.412 62.2274 8.124 62.2274 7.78C62.2274 7.436 62.1074 7.148 61.8674 6.916C61.6354 6.684 61.3074 6.568 60.8834 6.568ZM66.6249 13V12.172H67.8849V11.02H64.2729L64.2609 10.576L66.6849 5.536L67.4769 5.98L65.4489 10.204H67.8849V6.976H68.8569L68.8449 10.204L69.9729 10.192V11.02H68.8449V12.172H69.9249V13H66.6249ZM78.8978 7C78.8978 7 78.8218 6.964 78.6698 6.892C78.5258 6.82 78.3458 6.748 78.1298 6.676C77.9218 6.604 77.7138 6.568 77.5058 6.568C77.0898 6.568 76.7458 6.656 76.4738 6.832C76.2018 7.008 75.9858 7.24 75.8258 7.528C75.6658 7.808 75.5498 8.116 75.4778 8.452C75.4058 8.788 75.3658 9.116 75.3577 9.436C75.5098 9.228 75.7538 9.032 76.0898 8.848C76.4338 8.664 76.8258 8.572 77.2658 8.572C77.6738 8.572 78.0578 8.64 78.4178 8.776C78.7858 8.904 79.0858 9.136 79.3178 9.472C79.5498 9.8 79.6658 10.268 79.6658 10.876C79.6658 11.084 79.6258 11.32 79.5458 11.584C79.4738 11.848 79.3418 12.104 79.1498 12.352C78.9658 12.592 78.7018 12.792 78.3578 12.952C78.0218 13.104 77.5898 13.18 77.0618 13.18C76.1338 13.18 75.4498 12.868 75.0098 12.244C74.5778 11.612 74.3618 10.708 74.3618 9.532C74.3618 8.844 74.4858 8.216 74.7338 7.648C74.9898 7.072 75.3498 6.612 75.8138 6.268C76.2778 5.924 76.8338 5.752 77.4818 5.752C77.8418 5.752 78.1578 5.8 78.4298 5.896C78.7098 5.984 78.9298 6.076 79.0898 6.172C79.2498 6.26 79.3298 6.304 79.3298 6.304L78.8978 7ZM77.2658 9.388C76.8258 9.388 76.4338 9.464 76.0898 9.616C75.7538 9.76 75.5178 9.968 75.3818 10.24C75.4298 10.856 75.5418 11.316 75.7178 11.62C75.9018 11.924 76.1178 12.124 76.3658 12.22C76.6218 12.316 76.8818 12.364 77.1458 12.364C77.4978 12.364 77.7858 12.288 78.0098 12.136C78.2338 11.984 78.4018 11.796 78.5138 11.572C78.6258 11.34 78.6818 11.108 78.6818 10.876C78.6818 10.404 78.5658 10.04 78.3338 9.784C78.1018 9.52 77.7458 9.388 77.2658 9.388ZM83.3831 5.752C83.8231 5.752 84.2191 5.832 84.5711 5.992C84.9311 6.144 85.2191 6.372 85.4351 6.676C85.6511 6.972 85.7591 7.34 85.7591 7.78C85.7591 8.004 85.7111 8.224 85.6151 8.44C85.5271 8.656 85.3911 8.844 85.2071 9.004C85.0311 9.164 84.8151 9.28 84.5591 9.352C84.8151 9.392 85.0431 9.492 85.2431 9.652C85.4431 9.812 85.5991 10.016 85.7111 10.264C85.8311 10.504 85.8911 10.764 85.8911 11.044C85.8911 11.516 85.7711 11.912 85.5311 12.232C85.2991 12.552 84.9951 12.792 84.6191 12.952C84.2431 13.104 83.8351 13.18 83.3951 13.18C82.9631 13.18 82.5551 13.104 82.1711 12.952C81.7951 12.792 81.4871 12.552 81.2471 12.232C81.0151 11.912 80.8991 11.516 80.8991 11.044C80.8991 10.764 80.9551 10.504 81.0671 10.264C81.1871 10.016 81.3471 9.812 81.5471 9.652C81.7471 9.492 81.9751 9.392 82.2311 9.352C81.9751 9.28 81.7551 9.164 81.5711 9.004C81.3951 8.844 81.2591 8.656 81.1631 8.44C81.0751 8.224 81.0311 8.004 81.0311 7.78C81.0311 7.34 81.1351 6.972 81.3431 6.676C81.5591 6.372 81.8471 6.144 82.2071 5.992C82.5671 5.832 82.9591 5.752 83.3831 5.752ZM83.3951 9.76C82.9071 9.76 82.5391 9.884 82.2911 10.132C82.0511 10.38 81.9311 10.684 81.9311 11.044C81.9311 11.428 82.0671 11.744 82.3391 11.992C82.6111 12.24 82.9631 12.364 83.3951 12.364C83.8271 12.364 84.1791 12.24 84.4511 11.992C84.7231 11.744 84.8591 11.428 84.8591 11.044C84.8591 10.684 84.7391 10.38 84.4991 10.132C84.2591 9.884 83.8911 9.76 83.3951 9.76ZM83.3951 6.568C82.9711 6.568 82.6391 6.684 82.3991 6.916C82.1671 7.148 82.0511 7.436 82.0511 7.78C82.0511 8.124 82.1671 8.412 82.3991 8.644C82.6391 8.876 82.9711 8.992 83.3951 8.992C83.8191 8.992 84.1471 8.876 84.3791 8.644C84.6191 8.412 84.7391 8.124 84.7391 7.78C84.7391 7.436 84.6191 7.148 84.3791 6.916C84.1471 6.684 83.8191 6.568 83.3951 6.568ZM89.887 5.752C90.327 5.752 90.723 5.832 91.075 5.992C91.435 6.144 91.723 6.372 91.939 6.676C92.155 6.972 92.263 7.34 92.263 7.78C92.263 8.004 92.215 8.224 92.119 8.44C92.031 8.656 91.895 8.844 91.711 9.004C91.535 9.164 91.319 9.28 91.063 9.352C91.319 9.392 91.547 9.492 91.747 9.652C91.947 9.812 92.103 10.016 92.215 10.264C92.335 10.504 92.395 10.764 92.395 11.044C92.395 11.516 92.275 11.912 92.035 12.232C91.803 12.552 91.499 12.792 91.123 12.952C90.747 13.104 90.339 13.18 89.899 13.18C89.467 13.18 89.059 13.104 88.675 12.952C88.299 12.792 87.991 12.552 87.751 12.232C87.519 11.912 87.403 11.516 87.403 11.044C87.403 10.764 87.459 10.504 87.571 10.264C87.691 10.016 87.851 9.812 88.051 9.652C88.251 9.492 88.479 9.392 88.735 9.352C88.479 9.28 88.259 9.164 88.075 9.004C87.899 8.844 87.763 8.656 87.667 8.44C87.579 8.224 87.535 8.004 87.535 7.78C87.535 7.34 87.639 6.972 87.847 6.676C88.063 6.372 88.351 6.144 88.711 5.992C89.071 5.832 89.463 5.752 89.887 5.752ZM89.899 9.76C89.411 9.76 89.043 9.884 88.795 10.132C88.555 10.38 88.435 10.684 88.435 11.044C88.435 11.428 88.571 11.744 88.843 11.992C89.115 12.24 89.467 12.364 89.899 12.364C90.331 12.364 90.683 12.24 90.955 11.992C91.227 11.744 91.363 11.428 91.363 11.044C91.363 10.684 91.243 10.38 91.003 10.132C90.763 9.884 90.395 9.76 89.899 9.76ZM89.899 6.568C89.475 6.568 89.143 6.684 88.903 6.916C88.671 7.148 88.555 7.436 88.555 7.78C88.555 8.124 88.671 8.412 88.903 8.644C89.143 8.876 89.475 8.992 89.899 8.992C90.323 8.992 90.651 8.876 90.883 8.644C91.123 8.412 91.243 8.124 91.243 7.78C91.243 7.436 91.123 7.148 90.883 6.916C90.651 6.684 90.323 6.568 89.899 6.568ZM101.409 7C101.409 7 101.333 6.964 101.181 6.892C101.037 6.82 100.857 6.748 100.641 6.676C100.433 6.604 100.225 6.568 100.017 6.568C99.6015 6.568 99.2575 6.656 98.9855 6.832C98.7135 7.008 98.4975 7.24 98.3375 7.528C98.1775 7.808 98.0615 8.116 97.9895 8.452C97.9175 8.788 97.8775 9.116 97.8695 9.436C98.0215 9.228 98.2655 9.032 98.6015 8.848C98.9455 8.664 99.3375 8.572 99.7775 8.572C100.185 8.572 100.569 8.64 100.929 8.776C101.297 8.904 101.597 9.136 101.829 9.472C102.061 9.8 102.177 10.268 102.177 10.876C102.177 11.084 102.137 11.32 102.057 11.584C101.985 11.848 101.853 12.104 101.661 12.352C101.477 12.592 101.213 12.792 100.869 12.952C100.533 13.104 100.101 13.18 99.5735 13.18C98.6455 13.18 97.9615 12.868 97.5215 12.244C97.0895 11.612 96.8735 10.708 96.8735 9.532C96.8735 8.844 96.9975 8.216 97.2455 7.648C97.5015 7.072 97.8615 6.612 98.3255 6.268C98.7895 5.924 99.3455 5.752 99.9935 5.752C100.353 5.752 100.669 5.8 100.941 5.896C101.221 5.984 101.441 6.076 101.601 6.172C101.761 6.26 101.841 6.304 101.841 6.304L101.409 7ZM99.7775 9.388C99.3375 9.388 98.9455 9.464 98.6015 9.616C98.2655 9.76 98.0295 9.968 97.8935 10.24C97.9415 10.856 98.0535 11.316 98.2295 11.62C98.4135 11.924 98.6295 12.124 98.8775 12.22C99.1335 12.316 99.3935 12.364 99.6575 12.364C100.009 12.364 100.297 12.288 100.521 12.136C100.745 11.984 100.913 11.796 101.025 11.572C101.137 11.34 101.193 11.108 101.193 10.876C101.193 10.404 101.077 10.04 100.845 9.784C100.613 9.52 100.257 9.388 99.7775 9.388ZM105.379 13V12.172H106.639V11.02H103.027L103.015 10.576L105.439 5.536L106.231 5.98L104.203 10.204H106.639V6.976H107.611L107.599 10.204L108.727 10.192V11.02H107.599V12.172H108.679V13H105.379ZM112.456 5.932H113.056L113.032 12.172H114.904V13H110.104V12.172H112.096L112.108 7.336L110.392 8.752L109.864 8.104L112.456 5.932Z" fill="white"/>
</svg>
