<svg width="164" height="20" viewBox="0 0 164 20" fill="none" xmlns="http://www.w3.org/2000/svg">
<path d="M34.0601 12.18C33.6441 12.18 33.2361 12.124 32.8361 12.012C32.4441 11.9 32.0961 11.732 31.7921 11.508V5.352L30.6521 4.956L30.9041 4.212L32.7161 4.836V7.068C33.2121 6.804 33.6761 6.672 34.1081 6.672C34.9881 6.672 35.6321 6.884 36.0401 7.308C36.4561 7.732 36.6641 8.392 36.6641 9.288C36.6641 10.28 36.4521 11.012 36.0281 11.484C35.6121 11.948 34.9561 12.18 34.0601 12.18ZM34.0481 11.412C34.6161 11.412 35.0321 11.24 35.2961 10.896C35.5681 10.552 35.7041 10.016 35.7041 9.288C35.7041 8.648 35.5721 8.18 35.3081 7.884C35.0521 7.588 34.6481 7.44 34.0961 7.44C33.6641 7.44 33.2041 7.588 32.7161 7.884V11.112C33.0681 11.312 33.5121 11.412 34.0481 11.412ZM40.2476 12.18C39.8316 12.18 39.4236 12.124 39.0236 12.012C38.6316 11.9 38.2836 11.732 37.9796 11.508V5.352L36.8396 4.956L37.0916 4.212L38.9036 4.836V7.068C39.3996 6.804 39.8636 6.672 40.2956 6.672C41.1756 6.672 41.8196 6.884 42.2276 7.308C42.6436 7.732 42.8516 8.392 42.8516 9.288C42.8516 10.28 42.6396 11.012 42.2156 11.484C41.7996 11.948 41.1436 12.18 40.2476 12.18ZM40.2356 11.412C40.8036 11.412 41.2196 11.24 41.4836 10.896C41.7556 10.552 41.8916 10.016 41.8916 9.288C41.8916 8.648 41.7596 8.18 41.4956 7.884C41.2396 7.588 40.8356 7.44 40.2836 7.44C39.8516 7.44 39.3916 7.588 38.9036 7.884V11.112C39.2556 11.312 39.6996 11.412 40.2356 11.412ZM46.4831 6.672C47.0191 6.672 47.4831 6.784 47.8751 7.008C48.2751 7.224 48.5871 7.54 48.8111 7.956C49.0351 8.364 49.1471 8.856 49.1471 9.432C49.1471 10.288 48.9031 10.96 48.4151 11.448C47.9271 11.936 47.2831 12.18 46.4831 12.18C45.9711 12.18 45.5151 12.072 45.1151 11.856C44.7231 11.632 44.4151 11.316 44.1911 10.908C43.9751 10.492 43.8671 10 43.8671 9.432C43.8671 8.856 43.9751 8.364 44.1911 7.956C44.4151 7.54 44.7231 7.224 45.1151 7.008C45.5151 6.784 45.9711 6.672 46.4831 6.672ZM46.4951 7.44C45.9431 7.44 45.5271 7.616 45.2471 7.968C44.9671 8.312 44.8271 8.8 44.8271 9.432C44.8271 10.064 44.9671 10.552 45.2471 10.896C45.5271 11.24 45.9431 11.412 46.4951 11.412C47.0631 11.412 47.4871 11.24 47.7671 10.896C48.0471 10.552 48.1871 10.064 48.1871 9.432C48.1871 8.8 48.0471 8.312 47.7671 7.968C47.4871 7.616 47.0631 7.44 46.4951 7.44ZM49.9025 12V11.256H50.9105V7.812L49.7585 7.416L50.0105 6.672L51.6065 7.224C51.8865 7.04 52.1825 6.904 52.4945 6.816C52.8145 6.72 53.1265 6.672 53.4305 6.672C53.8145 6.672 54.1665 6.748 54.4865 6.9C54.8145 7.044 55.0745 7.268 55.2665 7.572C55.4665 7.868 55.5665 8.244 55.5665 8.7V11.256H56.5745V12H54.0905V11.256H54.6305V8.892C54.6305 8.38 54.4985 8.012 54.2345 7.788C53.9785 7.556 53.6585 7.44 53.2745 7.44C53.0505 7.44 52.8145 7.476 52.5665 7.548C52.3265 7.612 52.0865 7.712 51.8465 7.848V11.256H52.3865V12H49.9025ZM59.6984 12.18C59.4104 12.18 59.1344 12.124 58.8704 12.012C58.6144 11.9 58.4064 11.7 58.2464 11.412C58.0864 11.124 58.0064 10.724 58.0064 10.212V7.596H57.0104V6.852H58.0064V5.688L58.9184 5.472V6.852H60.4184V7.596H58.9184V9.684C58.9184 10.22 58.9704 10.652 59.0744 10.98C59.1784 11.308 59.4064 11.472 59.7584 11.472C60.0064 11.472 60.2864 11.4 60.5984 11.256L60.7784 11.928C60.6104 11.992 60.4344 12.048 60.2504 12.096C60.0664 12.152 59.8824 12.18 59.6984 12.18ZM65.895 11.388C65.575 11.66 65.247 11.86 64.911 11.988C64.583 12.116 64.207 12.18 63.783 12.18C63.223 12.18 62.735 12.072 62.319 11.856C61.903 11.632 61.579 11.316 61.347 10.908C61.123 10.492 61.011 9.996 61.011 9.42C61.011 8.868 61.119 8.388 61.335 7.98C61.551 7.564 61.855 7.244 62.247 7.02C62.647 6.788 63.107 6.672 63.627 6.672C64.115 6.672 64.531 6.776 64.875 6.984C65.219 7.192 65.483 7.484 65.667 7.86C65.859 8.228 65.955 8.668 65.955 9.18C65.955 9.252 65.951 9.328 65.943 9.408C65.943 9.48 65.939 9.556 65.931 9.636L61.935 9.66C61.959 10.068 62.055 10.4 62.223 10.656C62.399 10.912 62.619 11.1 62.883 11.22C63.155 11.34 63.443 11.4 63.747 11.4C64.099 11.4 64.415 11.352 64.695 11.256C64.975 11.16 65.231 11.016 65.463 10.824L65.895 11.388ZM65.031 8.904C65.023 8.456 64.891 8.096 64.635 7.824C64.387 7.544 64.055 7.404 63.639 7.404C63.215 7.404 62.843 7.544 62.523 7.824C62.203 8.096 62.011 8.46 61.947 8.916L65.031 8.904ZM71.7896 11.388C71.4696 11.66 71.1416 11.86 70.8056 11.988C70.4776 12.116 70.1016 12.18 69.6776 12.18C69.1176 12.18 68.6296 12.072 68.2136 11.856C67.7976 11.632 67.4736 11.316 67.2416 10.908C67.0176 10.492 66.9056 9.996 66.9056 9.42C66.9056 8.868 67.0136 8.388 67.2296 7.98C67.4456 7.564 67.7496 7.244 68.1416 7.02C68.5416 6.788 69.0016 6.672 69.5216 6.672C70.0096 6.672 70.4256 6.776 70.7696 6.984C71.1136 7.192 71.3776 7.484 71.5616 7.86C71.7536 8.228 71.8496 8.668 71.8496 9.18C71.8496 9.252 71.8456 9.328 71.8376 9.408C71.8376 9.48 71.8336 9.556 71.8256 9.636L67.8296 9.66C67.8536 10.068 67.9496 10.4 68.1176 10.656C68.2936 10.912 68.5136 11.1 68.7776 11.22C69.0496 11.34 69.3376 11.4 69.6416 11.4C69.9936 11.4 70.3096 11.352 70.5896 11.256C70.8696 11.16 71.1256 11.016 71.3576 10.824L71.7896 11.388ZM70.9256 8.904C70.9176 8.456 70.7856 8.096 70.5296 7.824C70.2816 7.544 69.9496 7.404 69.5336 7.404C69.1096 7.404 68.7376 7.544 68.4176 7.824C68.0976 8.096 67.9056 8.46 67.8416 8.916L70.9256 8.904ZM72.6017 12V11.256H73.6097V7.812L72.4577 7.416L72.7097 6.672L74.2937 7.224C74.5177 7.056 74.7737 6.924 75.0617 6.828C75.3577 6.724 75.6417 6.672 75.9137 6.672C76.3137 6.672 76.6577 6.724 76.9457 6.828C77.2417 6.932 77.4737 7.088 77.6417 7.296C77.8417 7.112 78.1017 6.964 78.4217 6.852C78.7417 6.732 79.0497 6.672 79.3457 6.672C80.0737 6.672 80.5977 6.832 80.9177 7.152C81.2457 7.472 81.4097 7.988 81.4097 8.7V11.256H82.4177V12H79.9337V11.256H80.4737V8.892C80.4737 8.364 80.3817 7.992 80.1977 7.776C80.0217 7.552 79.7177 7.44 79.2857 7.44C79.0297 7.44 78.7777 7.48 78.5297 7.56C78.2897 7.632 78.1057 7.728 77.9777 7.848V11.256H78.5177V12H76.5017V11.256H77.0417V8.892C77.0417 8.364 76.9497 7.992 76.7657 7.776C76.5897 7.552 76.2857 7.44 75.8537 7.44C75.5977 7.44 75.3457 7.48 75.0977 7.56C74.8577 7.632 74.6737 7.728 74.5457 7.848V11.256H75.0857V12H72.6017ZM83.1955 12V11.256H84.2035V7.812L83.0515 7.416L83.3035 6.672L84.8875 7.224C85.1115 7.056 85.3675 6.924 85.6555 6.828C85.9515 6.724 86.2355 6.672 86.5075 6.672C86.9075 6.672 87.2515 6.724 87.5395 6.828C87.8355 6.932 88.0675 7.088 88.2355 7.296C88.4355 7.112 88.6955 6.964 89.0155 6.852C89.3355 6.732 89.6435 6.672 89.9395 6.672C90.6675 6.672 91.1915 6.832 91.5115 7.152C91.8395 7.472 92.0035 7.988 92.0035 8.7V11.256H93.0115V12H90.5275V11.256H91.0675V8.892C91.0675 8.364 90.9755 7.992 90.7915 7.776C90.6155 7.552 90.3115 7.44 89.8795 7.44C89.6235 7.44 89.3715 7.48 89.1235 7.56C88.8835 7.632 88.6995 7.728 88.5715 7.848V11.256H89.1115V12H87.0955V11.256H87.6355V8.892C87.6355 8.364 87.5435 7.992 87.3595 7.776C87.1835 7.552 86.8795 7.44 86.4475 7.44C86.1915 7.44 85.9395 7.48 85.6915 7.56C85.4515 7.632 85.2675 7.728 85.1395 7.848V11.256H85.6795V12H83.1955ZM97.4732 11.652C96.9532 12.004 96.3892 12.18 95.7812 12.18C95.1092 12.18 94.5972 12.044 94.2452 11.772C93.9012 11.5 93.7252 11.104 93.7172 10.584C93.7012 9.536 94.3652 9.012 95.7092 9.012L97.2572 9.024C97.2572 8.488 97.1572 8.092 96.9572 7.836C96.7572 7.572 96.4532 7.44 96.0452 7.44C95.8532 7.44 95.6652 7.452 95.4812 7.476C95.2972 7.5 95.1252 7.536 94.9652 7.584L94.8452 8.244L94.0772 8.1L94.2692 7.008C94.5732 6.896 94.8692 6.812 95.1572 6.756C95.4532 6.7 95.7372 6.672 96.0092 6.672C96.7292 6.672 97.2732 6.868 97.6412 7.26C98.0092 7.644 98.1932 8.216 98.1932 8.976V11.064L99.3332 11.436L99.0932 12.204L97.4732 11.652ZM95.7452 9.768C95.4012 9.768 95.1372 9.836 94.9532 9.972C94.7692 10.108 94.6772 10.308 94.6772 10.572C94.6772 11.132 95.0612 11.412 95.8292 11.412C96.3812 11.412 96.8572 11.26 97.2572 10.956V9.78L95.7452 9.768ZM106.01 12.72C106.01 12.72 105.934 12.764 105.782 12.852C105.63 12.948 105.41 13.04 105.122 13.128C104.834 13.224 104.49 13.272 104.09 13.272C103.25 13.272 102.554 13.1 102.002 12.756C101.458 12.42 101.05 11.964 100.778 11.388C100.506 10.812 100.37 10.164 100.37 9.444C100.37 9.028 100.442 8.596 100.586 8.148C100.73 7.7 100.954 7.284 101.258 6.9C101.562 6.508 101.954 6.192 102.434 5.952C102.922 5.712 103.506 5.592 104.186 5.592C104.802 5.592 105.338 5.696 105.794 5.904C106.258 6.104 106.642 6.38 106.946 6.732C107.258 7.084 107.49 7.48 107.642 7.92C107.802 8.36 107.882 8.816 107.882 9.288C107.882 9.784 107.798 10.208 107.63 10.56C107.462 10.904 107.246 11.168 106.982 11.352C106.726 11.536 106.454 11.628 106.166 11.628C105.982 11.628 105.798 11.584 105.614 11.496C105.438 11.408 105.278 11.272 105.134 11.088C105.134 11.088 105.094 11.128 105.014 11.208C104.942 11.288 104.83 11.368 104.678 11.448C104.526 11.528 104.33 11.568 104.09 11.568C103.81 11.568 103.538 11.504 103.274 11.376C103.018 11.24 102.806 11.028 102.638 10.74C102.47 10.444 102.386 10.06 102.386 9.588C102.386 9.228 102.434 8.924 102.53 8.676C102.634 8.428 102.774 8.228 102.95 8.076C103.134 7.916 103.342 7.8 103.574 7.728C103.806 7.656 104.054 7.62 104.318 7.62C104.558 7.62 104.782 7.656 104.99 7.728C105.198 7.8 105.362 7.872 105.482 7.944C105.61 8.016 105.674 8.052 105.674 8.052V10.644C105.714 10.716 105.778 10.78 105.866 10.836C105.962 10.892 106.07 10.92 106.19 10.92C106.318 10.92 106.446 10.876 106.574 10.788C106.702 10.692 106.806 10.528 106.886 10.296C106.974 10.056 107.018 9.724 107.018 9.3C107.018 8.964 106.966 8.624 106.862 8.28C106.766 7.928 106.61 7.608 106.394 7.32C106.178 7.024 105.886 6.788 105.518 6.612C105.158 6.428 104.714 6.336 104.186 6.336C103.642 6.336 103.15 6.46 102.71 6.708C102.278 6.956 101.934 7.312 101.678 7.776C101.422 8.24 101.294 8.796 101.294 9.444C101.294 10.044 101.37 10.544 101.522 10.944C101.682 11.336 101.894 11.648 102.158 11.88C102.422 12.112 102.722 12.276 103.058 12.372C103.394 12.476 103.746 12.528 104.114 12.528C104.37 12.528 104.61 12.496 104.834 12.432C105.066 12.368 105.254 12.304 105.398 12.24C105.542 12.176 105.614 12.144 105.614 12.144L106.01 12.72ZM104.906 8.472C104.906 8.472 104.846 8.448 104.726 8.4C104.606 8.352 104.462 8.328 104.294 8.328C103.958 8.328 103.706 8.428 103.538 8.628C103.378 8.828 103.298 9.152 103.298 9.6C103.298 10.04 103.386 10.36 103.562 10.56C103.738 10.76 103.938 10.86 104.162 10.86C104.362 10.86 104.514 10.832 104.618 10.776C104.722 10.712 104.794 10.652 104.834 10.596C104.882 10.54 104.906 10.512 104.906 10.512V8.472ZM111.35 10.584C110.622 10.584 110.046 10.416 109.622 10.08C109.206 9.736 108.998 9.264 108.998 8.664C108.998 8.048 109.21 7.564 109.634 7.212C110.058 6.852 110.634 6.672 111.362 6.672C111.666 6.672 111.934 6.7 112.166 6.756C112.406 6.812 112.626 6.896 112.826 7.008L114.53 6.372L114.806 7.164L113.39 7.488C113.51 7.64 113.598 7.808 113.654 7.992C113.718 8.176 113.75 8.38 113.75 8.604C113.75 9.004 113.65 9.356 113.45 9.66C113.258 9.956 112.982 10.184 112.622 10.344C112.262 10.504 111.838 10.584 111.35 10.584ZM111.446 14.676C111.19 14.676 110.89 14.648 110.546 14.592C110.202 14.536 109.874 14.46 109.562 14.364C109.258 14.276 109.03 14.188 108.878 14.1L109.214 13.392C109.502 13.544 109.858 13.664 110.282 13.752C110.706 13.84 111.094 13.884 111.446 13.884C111.79 13.884 112.082 13.856 112.322 13.8C112.562 13.752 112.746 13.672 112.874 13.56C113.01 13.456 113.078 13.32 113.078 13.152C113.078 12.896 112.97 12.708 112.754 12.588C112.538 12.476 112.23 12.42 111.83 12.42H110.114V10.056L111.026 10.356V11.676H112.082C112.722 11.676 113.202 11.792 113.522 12.024C113.842 12.256 114.002 12.604 114.002 13.068C114.002 13.404 113.898 13.692 113.69 13.932C113.49 14.172 113.198 14.356 112.814 14.484C112.438 14.612 111.982 14.676 111.446 14.676ZM111.374 9.816C111.814 9.816 112.162 9.704 112.418 9.48C112.674 9.256 112.802 8.972 112.802 8.628C112.802 8.252 112.682 7.96 112.442 7.752C112.202 7.544 111.846 7.44 111.374 7.44C110.902 7.44 110.546 7.544 110.306 7.752C110.066 7.96 109.946 8.252 109.946 8.628C109.946 8.972 110.074 9.256 110.33 9.48C110.586 9.704 110.934 9.816 111.374 9.816ZM115.527 12V11.256H116.535V7.812L115.383 7.416L115.635 6.672L117.219 7.224C117.443 7.056 117.699 6.924 117.987 6.828C118.283 6.724 118.567 6.672 118.839 6.672C119.239 6.672 119.583 6.724 119.871 6.828C120.167 6.932 120.399 7.088 120.567 7.296C120.767 7.112 121.027 6.964 121.347 6.852C121.667 6.732 121.975 6.672 122.271 6.672C122.999 6.672 123.523 6.832 123.843 7.152C124.171 7.472 124.335 7.988 124.335 8.7V11.256H125.343V12H122.859V11.256H123.399V8.892C123.399 8.364 123.307 7.992 123.123 7.776C122.947 7.552 122.643 7.44 122.211 7.44C121.955 7.44 121.703 7.48 121.455 7.56C121.215 7.632 121.031 7.728 120.903 7.848V11.256H121.443V12H119.427V11.256H119.967V8.892C119.967 8.364 119.875 7.992 119.691 7.776C119.515 7.552 119.211 7.44 118.779 7.44C118.523 7.44 118.271 7.48 118.023 7.56C117.783 7.632 117.599 7.728 117.471 7.848V11.256H118.011V12H115.527ZM129.805 11.652C129.285 12.004 128.721 12.18 128.113 12.18C127.441 12.18 126.929 12.044 126.577 11.772C126.233 11.5 126.057 11.104 126.049 10.584C126.033 9.536 126.697 9.012 128.041 9.012L129.589 9.024C129.589 8.488 129.489 8.092 129.289 7.836C129.089 7.572 128.785 7.44 128.377 7.44C128.185 7.44 127.997 7.452 127.813 7.476C127.629 7.5 127.457 7.536 127.297 7.584L127.177 8.244L126.409 8.1L126.601 7.008C126.905 6.896 127.201 6.812 127.489 6.756C127.785 6.7 128.069 6.672 128.341 6.672C129.061 6.672 129.605 6.868 129.973 7.26C130.341 7.644 130.525 8.216 130.525 8.976V11.064L131.665 11.436L131.425 12.204L129.805 11.652ZM128.077 9.768C127.733 9.768 127.469 9.836 127.285 9.972C127.101 10.108 127.009 10.308 127.009 10.572C127.009 11.132 127.393 11.412 128.161 11.412C128.713 11.412 129.189 11.26 129.589 10.956V9.78L128.077 9.768ZM132.354 6.852H134.298V11.256H135.294V12H132.354V11.256H133.35V7.596H132.354V6.852ZM133.698 4.296C133.922 4.296 134.102 4.364 134.238 4.5C134.374 4.636 134.442 4.816 134.442 5.04C134.442 5.264 134.374 5.444 134.238 5.58C134.102 5.716 133.922 5.784 133.698 5.784C133.474 5.784 133.294 5.716 133.158 5.58C133.03 5.444 132.966 5.264 132.966 5.04C132.966 4.816 133.03 4.636 133.158 4.5C133.294 4.364 133.474 4.296 133.698 4.296ZM135.842 12V11.256H136.85V5.208L135.65 4.944L135.854 4.176L137.786 4.62V11.256H138.794V12H135.842ZM140.402 10.692C140.602 10.692 140.774 10.768 140.918 10.92C141.07 11.064 141.146 11.236 141.146 11.436C141.146 11.636 141.07 11.812 140.918 11.964C140.774 12.108 140.602 12.18 140.402 12.18C140.202 12.18 140.026 12.108 139.874 11.964C139.73 11.812 139.658 11.636 139.658 11.436C139.658 11.236 139.73 11.064 139.874 10.92C140.026 10.768 140.202 10.692 140.402 10.692ZM146.015 7.572C145.831 7.508 145.655 7.464 145.487 7.44C145.327 7.416 145.143 7.404 144.935 7.404C144.399 7.404 143.971 7.572 143.651 7.908C143.331 8.244 143.171 8.748 143.171 9.42C143.171 10.076 143.343 10.568 143.687 10.896C144.039 11.224 144.459 11.388 144.947 11.388C145.195 11.388 145.447 11.348 145.703 11.268C145.959 11.188 146.211 11.064 146.459 10.896L146.855 11.484C146.655 11.628 146.463 11.752 146.279 11.856C146.095 11.96 145.891 12.04 145.667 12.096C145.443 12.152 145.163 12.18 144.827 12.18C144.315 12.18 143.859 12.072 143.459 11.856C143.067 11.632 142.759 11.312 142.535 10.896C142.319 10.48 142.211 9.988 142.211 9.42C142.211 8.82 142.331 8.316 142.571 7.908C142.819 7.492 143.151 7.18 143.567 6.972C143.983 6.756 144.443 6.648 144.947 6.648C145.267 6.648 145.563 6.684 145.835 6.756C146.107 6.82 146.419 6.904 146.771 7.008L146.939 8.304L146.171 8.472L146.015 7.572ZM150.464 6.672C151 6.672 151.464 6.784 151.856 7.008C152.256 7.224 152.568 7.54 152.792 7.956C153.016 8.364 153.128 8.856 153.128 9.432C153.128 10.288 152.884 10.96 152.396 11.448C151.908 11.936 151.264 12.18 150.464 12.18C149.952 12.18 149.496 12.072 149.096 11.856C148.704 11.632 148.396 11.316 148.172 10.908C147.956 10.492 147.848 10 147.848 9.432C147.848 8.856 147.956 8.364 148.172 7.956C148.396 7.54 148.704 7.224 149.096 7.008C149.496 6.784 149.952 6.672 150.464 6.672ZM150.476 7.44C149.924 7.44 149.508 7.616 149.228 7.968C148.948 8.312 148.808 8.8 148.808 9.432C148.808 10.064 148.948 10.552 149.228 10.896C149.508 11.24 149.924 11.412 150.476 11.412C151.044 11.412 151.468 11.24 151.748 10.896C152.028 10.552 152.168 10.064 152.168 9.432C152.168 8.8 152.028 8.312 151.748 7.968C151.468 7.616 151.044 7.44 150.476 7.44ZM153.883 12V11.256H154.891V7.812L153.739 7.416L153.991 6.672L155.575 7.224C155.799 7.056 156.055 6.924 156.343 6.828C156.639 6.724 156.923 6.672 157.195 6.672C157.595 6.672 157.939 6.724 158.227 6.828C158.523 6.932 158.755 7.088 158.923 7.296C159.123 7.112 159.383 6.964 159.703 6.852C160.023 6.732 160.331 6.672 160.627 6.672C161.355 6.672 161.879 6.832 162.199 7.152C162.527 7.472 162.691 7.988 162.691 8.7V11.256H163.699V12H161.215V11.256H161.755V8.892C161.755 8.364 161.663 7.992 161.479 7.776C161.303 7.552 160.999 7.44 160.567 7.44C160.311 7.44 160.059 7.48 159.811 7.56C159.571 7.632 159.387 7.728 159.259 7.848V11.256H159.799V12H157.783V11.256H158.323V8.892C158.323 8.364 158.231 7.992 158.047 7.776C157.871 7.552 157.567 7.44 157.135 7.44C156.879 7.44 156.627 7.48 156.379 7.56C156.139 7.632 155.955 7.728 155.827 7.848V11.256H156.367V12H153.883Z" fill="white"/>
<path d="M24.1071 0.826904H0.892857C0.398996 0.826904 0 1.21143 0 1.68737V18.8967C0 19.3727 0.398996 19.7572 0.892857 19.7572H24.1071C24.601 19.7572 25 19.3727 25 18.8967V1.68737C25 1.21143 24.601 0.826904 24.1071 0.826904ZM21.8527 3.75518L13.0497 10.3566C12.832 10.5206 12.5279 10.5206 12.3103 10.3566L3.50446 3.75518C3.47127 3.73049 3.44692 3.69642 3.43484 3.65772C3.42275 3.61903 3.42353 3.57766 3.43706 3.53941C3.4506 3.50117 3.47621 3.46796 3.51032 3.44445C3.54442 3.42094 3.5853 3.4083 3.62723 3.40831H21.7299C21.7718 3.4083 21.8127 3.42094 21.8468 3.44445C21.8809 3.46796 21.9065 3.50117 21.9201 3.53941C21.9336 3.57766 21.9344 3.61903 21.9223 3.65772C21.9102 3.69642 21.8859 3.73049 21.8527 3.75518V3.75518Z" fill="white"/>
</svg>
